<svg width="167" height="112" viewBox="0 0 167 112" fill="none" xmlns="http://www.w3.org/2000/svg">
<mask id="mask0_22_72" style="mask-type:alpha" maskUnits="userSpaceOnUse" x="0" y="0" width="167" height="112">
<rect width="167" height="112" rx="10" fill="#C4C4C4"/>
</mask>
<g mask="url(#mask0_22_72)">
<path d="M167 -93.1387H0V143.046H167V-93.1387Z" fill="#F0D7B8"/>
<g opacity="0.4">
<path opacity="0.4" d="M169.077 -11.2288C133.429 -9.99773 98.0434 -4.65102 63.6234 4.7049C53.9851 7.32763 44.4461 10.2656 35.0063 13.5188C32.785 14.2825 31.3171 16.5038 31.9685 18.8697C32.5621 21.0315 35.0879 22.6763 37.3195 21.9092C70.272 10.5814 104.524 2.95641 139.203 -0.521862C149.134 -1.51857 159.092 -2.18758 169.077 -2.52888C171.424 -2.61053 173.426 -4.46957 173.426 -6.878C173.424 -9.17247 171.433 -11.3105 169.077 -11.2288Z" fill="white"/>
<path opacity="0.4" d="M185.063 14.194C147.894 5.09096 108.723 4.81372 71.3978 13.2381C60.9289 15.604 50.6289 18.6638 40.5662 22.3973C38.9351 23.0011 37.8261 24.5795 38.316 26.3603C38.748 27.9302 40.6394 29.2194 42.279 28.6105C77.3832 15.6006 115.313 10.9504 152.529 14.956C162.913 16.0881 173.209 17.9097 183.351 20.409C187.378 21.3955 189.098 15.1822 185.063 14.194Z" fill="white"/>
<path opacity="0.4" d="M203.719 23.3696C166.7 19.0655 129.206 21.5474 93.0778 30.6935C82.8656 33.2827 72.7953 36.4023 62.9078 40.0398C60.2052 41.0331 61.3771 45.3958 64.1069 44.3906C108.698 27.9819 156.531 22.3253 203.719 27.8803C204.939 28.0232 205.963 26.7424 205.974 25.625C205.988 24.2898 204.922 23.5108 203.719 23.3696Z" fill="white"/>
<path opacity="0.4" d="M160.558 54.7029C139.168 49.929 117.26 47.8717 95.3553 48.5798C73.4479 49.2842 51.7133 52.7123 30.6526 58.785C18.7784 62.226 7.16483 66.51 -4.09948 71.6044C-6.36503 72.625 -4.40053 75.9604 -2.14859 74.9432C17.5309 66.0989 38.2469 59.7711 59.5095 56.1096C80.6727 52.4518 102.207 51.4298 123.622 53.0667C135.705 53.9929 147.705 55.7857 159.531 58.4312C161.954 58.9721 162.99 55.2455 160.558 54.7029Z" fill="white"/>
<path opacity="0.4" d="M156.627 57.3035C122.472 52.6584 87.4514 55.5108 54.555 65.8861C45.2402 68.8387 36.1184 72.3686 27.2425 76.4553C25.5025 77.253 25.0739 79.7685 25.9719 81.3044C27.0162 83.0903 29.0743 83.3761 30.8211 82.575C60.804 68.832 93.8518 61.9043 126.818 62.1799C136.158 62.2421 145.485 62.8966 154.743 64.1393C156.638 64.3961 158.548 63.6817 159.104 61.6628C159.558 60.0113 158.537 57.562 156.627 57.3035Z" fill="white"/>
</g>
<path d="M97.0533 35.9342C109.861 32.5943 123.159 31.5467 136.332 32.8399C133.55 32.2373 130.745 31.7849 127.904 31.6191C127.424 30.7534 126.896 29.8575 126.041 29.3535C125.187 28.8496 123.922 28.9056 123.382 29.7377C123.451 29.1346 123.398 28.5236 123.224 27.9418C123.051 27.36 122.761 26.8196 122.372 26.3533C121.983 25.8871 121.503 25.5047 120.962 25.2295C120.421 24.9543 119.83 24.792 119.224 24.7524C118.618 24.7128 118.01 24.7968 117.438 24.9992C116.866 25.2017 116.34 25.5183 115.894 25.93C115.448 26.3417 115.09 26.8398 114.842 27.3941C114.594 27.9483 114.462 28.5471 114.452 29.1542C113.438 27.4306 111.9 25.9367 109.996 25.3062C108.092 24.6756 105.785 25.0923 104.509 26.6288C103.336 28.0343 103.212 30.021 103.27 31.8521C102.512 31.6057 101.47 32.0537 101.121 32.7704C100.987 33.047 100.927 33.364 100.743 33.6126C100.578 33.8366 100.328 33.9822 100.085 34.121C99.0278 34.7236 98.1083 35.3317 97.0533 35.9342Z" fill="white"/>
<path d="M39 27.4352C53.512 20.7944 68.7877 15.9689 84.4812 13.0679C81.2495 13.4081 78.057 13.6156 74.8185 13.9541C73.6722 11.5729 72.4373 8.93654 70.0884 7.70681C67.8773 6.54852 65.0403 6.85638 63.0196 8.31912C60.999 9.78187 59.8169 12.2583 59.7506 14.7484C59.1723 12.3961 56.9918 10.5098 54.5969 10.1459C52.2021 9.78187 49.6219 11.0762 48.564 13.255C47.8224 14.7824 47.8241 16.5598 47.8394 18.2505C47.452 18.3304 47.0842 18.4863 46.7572 18.709C46.4303 18.9317 46.1507 19.217 45.9344 19.5482C45.7203 19.8723 45.5737 20.2361 45.5032 20.618C45.4328 21 45.44 21.3922 45.5245 21.7713C43.1637 23.7528 41.3625 25.4536 39 27.4352Z" fill="white"/>
<path d="M54 73.0209C60.7787 70.4856 68.3465 68.8655 75.4565 67.3993C82.6137 65.9245 89.9489 65.5803 97.2514 65.2272C95.1465 64.7573 93.0698 64.4419 90.9097 64.4616C90.2246 61.6754 88.1815 59.3982 85.5757 58.1979C84.4931 57.7001 83.2856 57.3713 82.1117 57.5711C81.0791 57.7466 80.1556 58.316 79.3152 58.9423C77.6847 60.1572 76.1587 61.8329 76.0659 63.8651C75.9292 63.6028 75.5275 63.5445 75.2446 63.4535C74.9586 63.3739 74.6616 63.3412 74.3652 63.3566C73.9165 63.3406 73.47 63.4255 73.0585 63.6051C72.855 63.6979 72.6789 63.8415 72.5471 64.022C72.4152 64.2026 72.332 64.414 72.3055 64.636C71.779 63.0912 69.7929 62.0031 68.1692 61.8759C66.5455 61.7487 64.9113 62.5429 63.91 63.8355C62.9087 65.1282 62.5303 66.8387 62.7672 68.4479C59.9026 69.5233 56.7512 71.6884 54 73.0209Z" fill="white"/>
<path d="M167.07 111.642C165.908 111.682 165.236 111.739 164.079 111.739H70.9998C71.8989 107.713 73.0436 103.202 73.9398 99.176C72.6557 96.4612 72.0791 88.5724 77.5712 83.1384C77.7658 82.9423 77.9706 82.7535 78.1827 82.5675C78.2534 82.4988 78.3275 82.4334 78.4049 82.3714C78.4049 82.3221 78.4049 82.2741 78.4165 82.2262C78.5565 80.561 78.8556 78.9131 79.3099 77.3049C78.402 75.8408 78.113 74.243 78.1827 72.5246C78.3876 67.9737 80.0023 63.5991 82.8033 60.0065C82.8033 59.9324 82.8033 59.8612 82.8033 59.7843C82.9049 56.7673 83.2143 53.7678 84.0495 50.8656C84.0495 50.8656 83.1112 41.9033 90.4059 31.5553C97.307 21.771 114.969 6.73849 116.851 5.14649L116.996 5.02012L117.012 5.0085C118.16 5.0085 118.979 5.60259 119.559 6.59033L121.383 7.49527L123.126 8.35663C123.155 8.8505 123.377 9.29063 123.652 9.71041C123.797 9.92975 123.942 10.1375 124.102 10.3437C124.111 10.3553 124.117 10.3684 124.125 10.38C126.149 13.1399 127.49 16.366 128.201 19.7156C128.374 20.513 128.483 21.2974 128.954 21.9714C129.021 21.9162 129.131 21.9046 129.202 21.8508V21.8625C129.721 21.4572 130.308 21.1469 130.935 20.9459L131.003 20.9227C132.65 21.9511 134.261 23.0293 135.839 24.1575C136.609 26.1635 136.247 28.3525 136.103 30.4935C135.958 32.6724 136.124 34.8686 136.283 37.0518C136.327 37.611 136.41 38.2473 136.864 38.5726C136.873 38.6106 136.884 38.6479 136.898 38.6845C136.93 38.8181 136.965 38.9517 137.004 39.081C137.962 42.6223 139.016 46.1337 140.163 49.6149C140.263 49.9258 140.366 50.2352 140.474 50.546C140.492 50.5415 140.511 50.5386 140.529 50.5373C144.073 49.904 147.501 48.3251 150.791 46.8493C154.536 49.795 157.44 53.1258 160.442 56.824C161.038 56.747 161.749 56.747 162.223 57.1145C162.514 57.3425 162.679 57.6955 162.913 57.9787C163.1 58.2009 163.331 58.3813 163.592 58.5082C163.853 58.635 164.138 58.7056 164.428 58.7152C165.238 58.7576 166.041 58.8886 166.823 59.1059L166.844 64.0446L166.939 82.9815L167.07 111.642Z" fill="#FCCC87"/>
<g style="mix-blend-mode:multiply">
<path d="M160.452 56.8233C157.451 53.1222 154.545 49.7915 150.8 46.8486C147.513 48.323 144.084 49.899 140.538 50.5352C140.519 50.5352 140.5 50.5352 140.483 50.5439C139.165 46.6278 137.973 42.6745 136.906 38.6838C136.896 38.6461 136.885 38.6097 136.876 38.572C136.417 38.2466 136.333 37.6089 136.295 37.0497C136.132 34.8709 135.968 32.6775 136.113 30.4914C136.259 28.3518 136.617 26.1614 135.849 24.1568C134.271 23.0326 132.657 21.9538 131.009 20.9206L130.941 20.9438C130.57 22.7958 130.238 24.6376 129.66 26.4374C130.531 27.8216 130.321 29.6228 130.814 31.1872C131.131 32.1822 131.735 33.0755 132.055 34.0662C132.423 35.2215 132.396 36.4664 131.978 37.6046C132.059 37.6569 132.142 37.7034 132.223 37.7498L132.062 37.7092C132.456 38.0955 132.611 38.5662 132.913 39.0295C133.231 39.4861 133.393 40.0336 133.372 40.5896C133.348 40.8801 133.259 41.1532 133.246 41.4422C133.242 41.7866 133.291 42.1295 133.391 42.459C134.189 45.582 134.986 48.705 135.781 51.828L136.301 53.3197L150.961 49.5199L159.868 58.1625L160.458 56.8233H160.452Z" fill="#CFB496"/>
</g>
<g style="mix-blend-mode:multiply">
<path d="M135.259 32.9286C133.577 31.7201 131.959 30.484 130.551 28.9675C119.482 33.7275 108.355 38.7766 98.835 46.1657C89.315 53.5549 76.3829 67.4529 79.3127 77.3026C78.4034 75.8399 78.1129 74.2421 78.1855 72.5223C78.3881 67.9716 80.0026 63.597 82.8046 60.0056C82.8046 59.9301 82.8046 59.8604 82.8046 59.7834C89.3992 50.5045 102.814 38.8507 129.609 26.5374C131.621 28.1207 133.531 29.7403 135.25 31.6213C135.245 32.044 135.259 32.5103 135.259 32.9286Z" fill="#CFB496"/>
</g>
<g style="mix-blend-mode:multiply">
<path d="M116.125 59.1194V48.5564C116.125 48.5564 115.689 42.8159 120.628 40.4642C125.566 38.1125 125.293 44.2583 125.293 44.2583V55.0943L116.125 59.1194Z" fill="#CFB496"/>
</g>
<g style="mix-blend-mode:multiply">
<path d="M120.716 57.1046V48.5564C120.716 48.5564 120.327 43.4172 124.473 40.8724C123.826 39.9732 122.677 39.4895 120.629 40.4642C115.69 42.8159 116.126 48.5564 116.126 48.5564V59.1193L120.716 57.1046Z" fill="#CFB496"/>
</g>
<g style="mix-blend-mode:multiply">
<path d="M109.947 61.4425V50.1518C109.947 50.1518 109.895 45.922 107.244 47.4806C104.126 49.3137 104.048 54.9351 104.048 54.9351V64.5945L109.947 61.4425Z" fill="#CFB496"/>
</g>
<g style="mix-blend-mode:multiply">
<path d="M107.276 55.5318C107.276 55.5318 107.344 50.8516 109.725 48.6409C109.434 47.6095 108.775 46.5797 107.244 47.4788C104.126 49.3119 104.048 54.9333 104.048 54.9333V64.5942L107.277 62.8701L107.276 55.5318Z" fill="#CFB496"/>
</g>
<g style="mix-blend-mode:multiply">
<path d="M99.6858 66.295V56.698C99.6858 56.698 99.4767 53.1407 96.6965 54.7254C93.9163 56.3102 94.1545 60.3076 94.1545 60.3076V70.3011L99.6858 66.295Z" fill="#CFB496"/>
</g>
<g style="mix-blend-mode:multiply">
<path d="M98.7722 66.9547V61.4132C98.7722 61.4132 98.6444 59.2518 99.6858 57.4768V56.6967C99.6858 56.6967 99.4767 53.1394 96.6965 54.7242C93.9163 56.3089 94.1545 60.3063 94.1545 60.3063V70.2999L98.7722 66.9547Z" fill="#CFB496"/>
</g>
<g style="mix-blend-mode:multiply">
<path d="M91.1611 72.0663V63.9044C91.1611 63.9044 91.2207 60.7945 89.2728 61.4525C87.3249 62.1105 87.3598 66.7136 87.3598 66.7136V74.8479L91.1611 72.0663Z" fill="#CFB496"/>
</g>
<g style="mix-blend-mode:multiply">
<path d="M85.2711 75.8922V70.4219C85.2711 70.4219 85.181 68.2983 84.0451 68.5685C82.9093 68.8386 83.0284 72.0357 83.0284 72.0357V78.0159L85.2711 75.8922Z" fill="#CFB496"/>
</g>
<g style="mix-blend-mode:multiply">
<path d="M143.81 74.4877V93.2634C142.053 93.3883 138.327 93.811 135.128 94.1959C132.122 94.5533 129.58 94.8772 129.58 94.8772V78.0145C129.58 78.0145 129.458 69.1641 136.815 68.5439C137.793 68.442 138.78 68.5049 139.737 68.7298C144.065 69.8236 143.81 74.4877 143.81 74.4877Z" fill="#CFB496"/>
</g>
<g style="mix-blend-mode:multiply">
<path d="M122.166 79.3898V95.6584L116.371 96.9352L111.578 97.9912V81.6892C111.578 81.6892 111.758 74.9654 117.021 74.2492C118.382 74.0633 119.381 74.3175 120.118 74.794C122.231 76.1666 122.166 79.3898 122.166 79.3898Z" fill="#CFB496"/>
</g>
<g style="mix-blend-mode:multiply">
<path d="M105.184 84.891V98.5261L103.556 99.02L97.7076 100.798V88.181C97.7076 88.181 97.2297 79.7562 101.596 79.0924C102.966 78.8861 103.83 79.3829 104.366 80.1586C105.548 81.8537 105.184 84.891 105.184 84.891Z" fill="#CFB496"/>
</g>
<g style="mix-blend-mode:multiply">
<path d="M94.0822 101.874V89.1425C94.0822 89.1425 94.7402 84.2401 91.8104 84.718C88.8806 85.1959 88.9998 90.8768 88.9998 90.8768V103.883L94.0822 101.874Z" fill="#CFB496"/>
</g>
<g style="mix-blend-mode:multiply">
<path d="M93.2744 102.192V90.634C93.2744 90.634 93.2265 88.2576 93.9832 86.4492C93.7378 85.4004 93.1495 84.494 91.8044 84.7061C88.8746 85.184 88.9937 90.8649 88.9937 90.8649V103.871L93.2744 102.192Z" fill="#CFB496"/>
</g>
<g style="mix-blend-mode:multiply">
<path d="M84.4343 104.922V93.8002C84.4343 93.8002 84.4865 88.7773 83.0253 89.1361C81.564 89.4948 81.6236 94.2781 81.6236 94.2781V105.999L84.4343 104.922Z" fill="#CFB496"/>
</g>
<g style="mix-blend-mode:multiply">
<path d="M84.1045 105.049V94.4268C84.1023 93.4879 84.1722 92.5502 84.3137 91.622C84.1684 90.3147 83.814 88.9434 83.0253 89.1366C81.564 89.4954 81.6236 94.2787 81.6236 94.2787V105.999L84.1045 105.049Z" fill="#CFB496"/>
</g>
<g style="mix-blend-mode:multiply">
<path d="M154.62 58.717L154.552 61.5509L149.67 57.0263C135.975 59.6554 108.073 67.9422 90.5351 76.6401C70.5625 86.5465 73.9397 99.1764 73.9397 99.1764C72.6557 96.463 72.0877 88.5612 77.5725 83.1388C77.7715 82.9441 77.9749 82.7553 78.1841 82.5679C78.2567 82.4997 78.3293 82.4314 78.4063 82.3689C83.4176 77.8936 91.1161 73.7335 99.6862 69.1638C116.065 60.4238 150.45 53.3193 150.45 53.3193C150.45 53.3193 154.302 58.3728 154.62 58.717Z" fill="#CFB496"/>
</g>
<g style="mix-blend-mode:multiply">
<path d="M144.588 61.5916C144.428 61.6308 127.208 66.2151 127.208 66.2151V77.8558H127.644V68.6873L144.585 64.5011L144.588 61.5916Z" fill="#CFB496"/>
</g>
<g style="mix-blend-mode:multiply">
<path d="M123.899 67.4516V69.9631L111.063 73.9881V78.7626H110.595V71.6175L123.899 67.4516Z" fill="#CFB496"/>
</g>
<g style="mix-blend-mode:multiply">
<path d="M106.519 73.1064L96.5529 77.2578V83.9047H97.1106V78.5055L106.519 75.2344V73.1064Z" fill="#CFB496"/>
</g>
<g style="mix-blend-mode:multiply">
<path d="M86.0494 83.2463V84.9066L81.4753 88.1051V86.5799L86.0494 83.2463Z" fill="#CFB496"/>
</g>
<g style="mix-blend-mode:multiply">
<path d="M151.475 93.8426L150.321 92.5295L145.121 93.1788L145.091 92.9463L150.415 92.2811L151.573 93.5985L164.309 92.2883L164.332 92.5207L151.475 93.8426Z" fill="#CFB496"/>
</g>
<g style="mix-blend-mode:multiply">
<path d="M126.496 96.6387L125.98 95.4084L122.188 96.1579L122.143 95.9284L126.123 95.1411L126.643 96.3831L145.091 93.9239L145.122 94.1548L126.496 96.6387Z" fill="#CFB496"/>
</g>
<g style="mix-blend-mode:multiply">
<path d="M108.982 100.012L107.409 98.9207L104.824 99.6005L104.77 99.3681L107.453 98.6665L108.995 99.7371C109.051 99.7112 109.114 99.7071 109.173 99.7254C109.189 99.7316 109.205 99.7399 109.219 99.7501C109.972 99.647 118.245 97.7689 121.457 97.0353L121.509 97.2634C121.509 97.2634 118.437 97.9664 115.361 98.6578C109.921 99.8809 109.209 100.032 109.084 99.9535L109.046 99.9724L108.982 100.012Z" fill="#CFB496"/>
</g>
<g style="mix-blend-mode:multiply">
<path d="M94.9102 103.235L94.2551 102.284L92.5469 102.91L92.467 102.689L94.3452 102.001L95.0061 102.962L103.355 100.416L103.424 100.64L94.9102 103.235Z" fill="#CFB496"/>
</g>
<g style="mix-blend-mode:multiply">
<path d="M151.488 63.0182C152.669 63.698 153.688 64.5637 154.675 65.5021C154.887 65.3815 155.078 65.2029 155.29 65.0823C153.811 63.4162 152.364 61.7284 150.73 60.2148C149.875 60.402 149.032 60.6362 148.203 60.9164C148.203 61.0878 148.095 61.1401 148.095 61.3129V64.0641C149.172 64.0641 150.437 63.2463 151.488 63.0182Z" fill="#CFB496"/>
</g>
<g style="mix-blend-mode:multiply">
<path d="M154.393 70.9188C154.767 71.661 155.14 72.4018 155.463 73.1673C155.785 73.9328 156.062 74.7361 156.354 75.5248C158.493 81.2987 161.613 86.6514 164.715 91.9706C165.195 89.9152 164.473 87.7582 163.497 85.8946C162.521 84.031 161.274 82.2763 160.583 80.2819C160.051 78.7437 159.867 77.111 159.47 75.5321C159.074 73.9531 158.417 72.3641 157.168 71.3197C157.052 71.2223 157.047 70.178 156.998 69.9702C156.896 69.5288 156.75 69.0986 156.562 68.6862C156.166 67.8229 155.607 67.0442 154.916 66.3926C154.255 65.768 153.438 65.2001 152.565 64.9154C151.125 64.4462 152.302 66.5655 152.54 67.0942C153.117 68.387 153.756 69.6536 154.393 70.9188Z" fill="#CFB496"/>
</g>
<g style="mix-blend-mode:multiply">
<path d="M117.68 8.57363C85.7098 30.4186 84.0567 50.8618 84.0567 50.8618C84.0567 50.8618 83.1184 41.8995 90.4131 31.5545C97.3142 21.7686 115.14 6.59671 117.022 5.00616L117.68 8.57363Z" fill="#CFB496"/>
</g>
<g style="mix-blend-mode:multiply">
<path d="M87.4425 54.4625L87.2435 54.3391C87.2682 54.2998 89.7826 50.3169 96.4106 44.2336C102.521 38.6239 113.485 30.0233 131.015 20.8984L131.122 21.1061C97.6293 38.5382 87.5399 54.3056 87.4425 54.4625Z" fill="#CFB496"/>
</g>
<g style="mix-blend-mode:multiply">
<path d="M100.139 33.4876L102.89 31.1751V26.1129C102.89 26.1129 102.818 24.5239 101.515 25.115C100.139 25.7396 100.139 27.5089 100.139 27.5089V33.4876Z" fill="#CFB496"/>
</g>
<g style="mix-blend-mode:multiply">
<path d="M139.737 68.7296C138.285 69.2743 136.876 70.0369 136.106 71.3442C135.388 72.5716 135.354 74.0677 135.338 75.4898C135.269 81.7232 135.2 87.9565 135.131 94.1899C132.124 94.5473 129.583 94.8712 129.583 94.8712V78.0143C129.583 78.0143 129.461 69.1639 136.818 68.5437C137.794 68.4422 138.781 68.505 139.737 68.7296Z" fill="#CFB496"/>
</g>
<g style="mix-blend-mode:multiply">
<path d="M120.119 74.794C119.555 74.9953 119.06 75.3536 118.693 75.8267C118.12 76.553 117.836 77.4667 117.619 78.3701C117.029 80.8627 116.905 83.4381 116.793 85.9989C116.633 89.6419 116.493 93.2859 116.371 96.9309L111.578 97.9869V81.6892C111.578 81.6892 111.758 74.9654 117.021 74.2492C118.383 74.0633 119.383 74.3175 120.119 74.794Z" fill="#CFB496"/>
</g>
<g style="mix-blend-mode:multiply">
<path d="M103.027 83.0942C102.757 84.4843 102.839 85.915 102.919 87.324C103.131 91.0135 103.343 94.7015 103.556 98.3881C103.573 98.5984 103.573 98.8097 103.556 99.02L97.7076 100.798V88.181C97.7076 88.181 97.2297 79.7562 101.596 79.0924C102.966 78.8861 103.83 79.3829 104.366 80.1586C104.177 80.4491 103.945 80.7178 103.785 80.9894C103.42 81.6454 103.164 82.3562 103.027 83.0942V83.0942Z" fill="#CFB496"/>
</g>
<g style="mix-blend-mode:multiply">
<path d="M150.816 47.9286C152.281 49.1972 153.66 50.5613 154.946 52.0117C156.543 53.8144 158.025 55.7782 160.029 57.1175C159.886 57.4464 159.829 57.8062 159.862 58.1633C156.851 55.3207 153.866 52.4722 150.961 49.5192C150.848 48.9969 150.799 48.4627 150.816 47.9286Z" fill="#F0DBC1"/>
</g>
<g style="mix-blend-mode:multiply">
<path d="M129.208 21.8619C129.157 21.9927 129.079 22.1113 128.979 22.2097C128.879 22.3081 128.759 22.3841 128.627 22.4327C128.362 22.5286 128.086 22.5873 127.805 22.607C127.193 21.3007 126.485 20.0413 125.687 18.8391C125.502 18.5227 125.258 18.245 124.968 18.0213C124.306 17.5739 123.396 17.7221 122.672 17.3851C122.76 16.0967 122.502 14.801 122.079 13.5809C121.881 13.0173 121.65 12.4639 121.402 11.9206C121.28 11.6533 121.154 11.389 121.024 11.1275C120.936 10.9459 120.6 10.5015 120.618 10.3097C120.648 9.92334 121.713 10.1717 122.025 10.1921L123.847 10.3213C123.934 10.3213 124.019 10.333 124.104 10.3446C124.114 10.3562 124.121 10.3678 124.13 10.3794C126.15 13.1393 127.491 16.3683 128.204 19.715C128.376 20.5154 128.524 21.3549 128.994 22.0289C129.066 21.9694 129.135 21.9142 129.208 21.8619Z" fill="#CFB496"/>
</g>
<g style="mix-blend-mode:multiply">
<path d="M117.747 9.034C116.731 9.58041 115.745 10.1797 114.792 10.8294C113.879 11.4554 112.904 12.0422 112.115 12.8237C112.291 12.7341 112.481 12.6733 112.676 12.6436C112.774 12.6297 112.874 12.6393 112.967 12.6717C113.061 12.704 113.145 12.7581 113.214 12.8295C113.269 12.8949 113.307 12.9748 113.359 13.0387C113.574 13.2624 113.947 13.1462 114.23 13.0155C114.268 13.3189 114.42 13.5967 114.654 13.7936C114.888 13.9904 115.187 14.0917 115.493 14.0773C115.843 14.0468 116.219 13.8666 116.521 14.0468C116.735 14.1746 116.812 14.439 116.995 14.6133C117.384 14.9982 117.818 14.7295 118.268 14.8123C118.815 14.9139 118.881 15.5458 118.829 15.9917C118.802 16.2169 118.771 16.4609 118.884 16.657C118.986 16.7927 119.109 16.9101 119.25 17.0042C119.746 17.4225 119.994 18.1938 120.193 18.7879C120.439 19.5142 120.64 20.2608 120.855 21.0001C121.278 22.4527 121.756 23.9227 122.671 25.1472C121.3 19.7814 119.441 14.3082 117.747 9.034Z" fill="#FFF2DB"/>
</g>
<g style="mix-blend-mode:multiply">
<path d="M107.203 43.7442C102.93 37.6943 99.292 31.2205 96.3452 24.4253C94.0299 26.9237 91.9527 29.364 90.413 31.5515C83.1183 41.8966 84.0566 50.8588 84.0566 50.8588C83.2229 53.7639 82.912 56.7606 82.8103 59.7804C82.8103 59.8545 82.8103 59.9257 82.8103 60.0027C80.0067 63.5944 78.3912 67.9702 78.1883 72.5222C78.1157 74.242 78.4062 75.8398 79.3155 77.3025C78.8593 78.9108 78.5596 80.5593 78.4207 82.2252C78.4207 82.2732 78.4207 82.3197 78.4091 82.3705C78.3336 82.4344 78.2639 82.4998 78.1869 82.568C77.9738 82.752 77.77 82.9423 77.5753 83.1389C72.0876 88.5613 72.6556 96.4632 73.9396 99.1765C73.0434 103.203 71.8973 107.713 71.0011 111.74H164.079C165.241 111.74 165.914 111.683 167.07 111.642L166.952 85.1652C151.555 81.085 137.057 73.5666 124.937 63.2201C118.24 57.4899 112.283 50.9475 107.203 43.7442V43.7442Z" fill="#FEF3E5"/>
</g>
<g style="mix-blend-mode:multiply">
<path d="M94.1462 78.2539L87.6039 82.4693V83.9044V89.7741L87.9249 89.5751L88.0019 83.6807L94.1462 80.2294V78.2539Z" fill="#CFB496"/>
</g>
<g style="mix-blend-mode:multiply">
<path d="M123.013 10.0759C121.659 9.91899 120.363 9.45418 119.082 8.99081C118.626 8.82813 118.171 8.6635 117.718 8.49694C117.518 7.34798 117.263 6.16269 117.008 5.01082L117.024 4.9992C118.171 4.9992 118.99 5.59329 119.57 6.58103L121.394 7.48597C121.411 7.54179 121.432 7.5962 121.457 7.64865C121.555 7.78309 121.674 7.90081 121.81 7.99727C121.877 8.04661 121.931 8.11288 121.964 8.18939C121.998 8.26591 122.011 8.34995 122.002 8.43303C121.972 8.41631 121.94 8.40647 121.906 8.40427C121.873 8.40206 121.839 8.40754 121.808 8.42029C121.777 8.43304 121.749 8.45272 121.727 8.47783C121.705 8.50295 121.688 8.53284 121.679 8.56522C121.666 8.63181 121.673 8.70072 121.699 8.76345C121.725 8.82618 121.768 8.87997 121.824 8.91818C121.939 8.99369 122.07 9.03915 122.206 9.05037C122.341 9.06377 122.473 9.09152 122.602 9.13316C122.525 9.48758 122.782 9.81296 123.013 10.0759Z" fill="#FEE7C8"/>
</g>
<g style="mix-blend-mode:multiply">
<path d="M166.939 83.3317C166.37 83.1864 165.801 83.0412 165.256 82.8959C164.768 82.7637 164.254 82.62 163.891 82.2365C163.703 82.0389 163.559 81.7818 163.337 81.6322C163.08 81.455 162.756 81.4506 162.466 81.3417C162.191 81.2349 161.951 81.0549 161.772 80.8214C161.593 80.5878 161.481 80.3096 161.449 80.017C161.269 78.5412 161.09 77.0523 160.641 75.6462C160.397 74.8749 160.072 74.137 159.802 73.373C159.05 71.2356 158.737 68.9684 158.882 66.7072C159.927 65.2721 161.434 64.0854 163.08 63.7295C164.342 63.4628 165.655 63.5708 166.857 64.0403L166.939 83.3317Z" fill="#CFB496"/>
</g>
</g>
</svg>
